<svg width="595" height="660" viewBox="0 0 595 660" fill="none" xmlns="http://www.w3.org/2000/svg">
<g clip-path="url(#clip0_101:17)">
<rect width="595" height="330" fill="#FEFFC0"/>
<path d="M123 296.5C123 364.675 62.2748 421 -14 421C-90.2748 421 -151 364.675 -151 296.5C-151 228.325 -90.2748 172 -14 172C62.2748 172 123 228.325 123 296.5Z" fill="#FF7979"/>
<path d="M123 296.5C123 364.675 62.2748 421 -14 421C-90.2748 421 -151 364.675 -151 296.5C-151 228.325 -90.2748 172 -14 172C62.2748 172 123 228.325 123 296.5Z" fill="#FF7979"/>
<path d="M123 296.5C123 364.675 62.2748 421 -14 421C-90.2748 421 -151 364.675 -151 296.5C-151 228.325 -90.2748 172 -14 172C62.2748 172 123 228.325 123 296.5Z" fill="#D3FFD2"/>
<path d="M123 296.5C123 364.675 62.2748 421 -14 421C-90.2748 421 -151 364.675 -151 296.5C-151 228.325 -90.2748 172 -14 172C62.2748 172 123 228.325 123 296.5Z" stroke="black" stroke-width="14"/>
<path d="M374.5 325.66C374.5 348.652 353.987 367.819 328 367.819C302.013 367.819 281.5 348.652 281.5 325.66C281.5 302.668 302.013 283.5 328 283.5C353.987 283.5 374.5 302.668 374.5 325.66Z" fill="#FF7979"/>
<path d="M374.5 325.66C374.5 348.652 353.987 367.819 328 367.819C302.013 367.819 281.5 348.652 281.5 325.66C281.5 302.668 302.013 283.5 328 283.5C353.987 283.5 374.5 302.668 374.5 325.66Z" fill="#FF7979"/>
<path d="M374.5 325.66C374.5 348.652 353.987 367.819 328 367.819C302.013 367.819 281.5 348.652 281.5 325.66C281.5 302.668 302.013 283.5 328 283.5C353.987 283.5 374.5 302.668 374.5 325.66Z" fill="#F9D2FF"/>
<path d="M374.5 325.66C374.5 348.652 353.987 367.819 328 367.819C302.013 367.819 281.5 348.652 281.5 325.66C281.5 302.668 302.013 283.5 328 283.5C353.987 283.5 374.5 302.668 374.5 325.66Z" stroke="black" stroke-width="7"/>
<path d="M246.756 13.7375L331.042 53.041C341.804 58.0593 346.46 70.8513 341.442 81.6129L317.05 133.921C310.183 148.648 288.102 143.753 288.102 127.503C288.102 111.838 272.307 101.107 257.744 106.877L212.138 124.948C194.058 132.113 176.513 113.5 184.732 95.874L218.184 24.1369C223.202 13.3752 235.994 8.71931 246.756 13.7375Z" fill="#FFC0C8" stroke="black" stroke-width="7"/>
</g>
<g clip-path="url(#clip1_101:17)">
<rect width="595" height="330" transform="translate(0 330)" fill="#FEFFC0"/>
<path d="M124 293.5C124 361.675 63.2748 418 -13 418C-89.2748 418 -150 361.675 -150 293.5C-150 225.325 -89.2748 169 -13 169C63.2748 169 124 225.325 124 293.5Z" fill="#FF7979"/>
<path d="M124 293.5C124 361.675 63.2748 418 -13 418C-89.2748 418 -150 361.675 -150 293.5C-150 225.325 -89.2748 169 -13 169C63.2748 169 124 225.325 124 293.5Z" fill="#FF7979"/>
<path d="M124 293.5C124 361.675 63.2748 418 -13 418C-89.2748 418 -150 361.675 -150 293.5C-150 225.325 -89.2748 169 -13 169C63.2748 169 124 225.325 124 293.5Z" fill="#D3FFD2"/>
<path d="M124 293.5C124 361.675 63.2748 418 -13 418C-89.2748 418 -150 361.675 -150 293.5C-150 225.325 -89.2748 169 -13 169C63.2748 169 124 225.325 124 293.5Z" stroke="black" stroke-width="14"/>
<path d="M371 329.66C371 350.426 352.36 368.319 328 368.319C303.64 368.319 285 350.426 285 329.66C285 308.893 303.64 291 328 291C352.36 291 371 308.893 371 329.66Z" fill="#FF7979"/>
<path d="M371 329.66C371 350.426 352.36 368.319 328 368.319C303.64 368.319 285 350.426 285 329.66C285 308.893 303.64 291 328 291C352.36 291 371 308.893 371 329.66Z" fill="#FF7979"/>
<path d="M371 329.66C371 350.426 352.36 368.319 328 368.319C303.64 368.319 285 350.426 285 329.66C285 308.893 303.64 291 328 291C352.36 291 371 308.893 371 329.66Z" fill="#D3FFD2"/>
<path d="M371 329.66C371 350.426 352.36 368.319 328 368.319C303.64 368.319 285 350.426 285 329.66C285 308.893 303.64 291 328 291C352.36 291 371 308.893 371 329.66Z" stroke="black" stroke-width="14"/>
<path d="M374.5 329.66C374.5 352.652 353.987 371.819 328 371.819C302.013 371.819 281.5 352.652 281.5 329.66C281.5 306.668 302.013 287.5 328 287.5C353.987 287.5 374.5 306.668 374.5 329.66Z" fill="#FF7979"/>
<path d="M374.5 329.66C374.5 352.652 353.987 371.819 328 371.819C302.013 371.819 281.5 352.652 281.5 329.66C281.5 306.668 302.013 287.5 328 287.5C353.987 287.5 374.5 306.668 374.5 329.66Z" fill="#FF7979"/>
<path d="M374.5 329.66C374.5 352.652 353.987 371.819 328 371.819C302.013 371.819 281.5 352.652 281.5 329.66C281.5 306.668 302.013 287.5 328 287.5C353.987 287.5 374.5 306.668 374.5 329.66Z" fill="#F9D2FF"/>
<path d="M374.5 329.66C374.5 352.652 353.987 371.819 328 371.819C302.013 371.819 281.5 352.652 281.5 329.66C281.5 306.668 302.013 287.5 328 287.5C353.987 287.5 374.5 306.668 374.5 329.66Z" stroke="black" stroke-width="7"/>
<path d="M279.5 392.83C279.5 403.213 270.18 412.16 258 412.16C245.82 412.16 236.5 403.213 236.5 392.83C236.5 382.447 245.82 373.5 258 373.5C270.18 373.5 279.5 382.447 279.5 392.83Z" fill="#FF7979"/>
<path d="M279.5 392.83C279.5 403.213 270.18 412.16 258 412.16C245.82 412.16 236.5 403.213 236.5 392.83C236.5 382.447 245.82 373.5 258 373.5C270.18 373.5 279.5 382.447 279.5 392.83Z" fill="#FF7979"/>
<path d="M279.5 392.83C279.5 403.213 270.18 412.16 258 412.16C245.82 412.16 236.5 403.213 236.5 392.83C236.5 382.447 245.82 373.5 258 373.5C270.18 373.5 279.5 382.447 279.5 392.83Z" fill="#F9D2FF"/>
<path d="M279.5 392.83C279.5 403.213 270.18 412.16 258 412.16C245.82 412.16 236.5 403.213 236.5 392.83C236.5 382.447 245.82 373.5 258 373.5C270.18 373.5 279.5 382.447 279.5 392.83Z" stroke="black" stroke-width="7"/>
<path d="M217.5 360.83C217.5 371.213 208.18 380.16 196 380.16C183.82 380.16 174.5 371.213 174.5 360.83C174.5 350.447 183.82 341.5 196 341.5C208.18 341.5 217.5 350.447 217.5 360.83Z" fill="#FF7979"/>
<path d="M217.5 360.83C217.5 371.213 208.18 380.16 196 380.16C183.82 380.16 174.5 371.213 174.5 360.83C174.5 350.447 183.82 341.5 196 341.5C208.18 341.5 217.5 350.447 217.5 360.83Z" fill="#FF7979"/>
<path d="M217.5 360.83C217.5 371.213 208.18 380.16 196 380.16C183.82 380.16 174.5 371.213 174.5 360.83C174.5 350.447 183.82 341.5 196 341.5C208.18 341.5 217.5 350.447 217.5 360.83Z" fill="#F9D2FF"/>
<path d="M217.5 360.83C217.5 371.213 208.18 380.16 196 380.16C183.82 380.16 174.5 371.213 174.5 360.83C174.5 350.447 183.82 341.5 196 341.5C208.18 341.5 217.5 350.447 217.5 360.83Z" stroke="black" stroke-width="7"/>
<path d="M531.352 617.519L520.34 622.653C495.741 634.124 467.186 617.853 464.514 590.843L462.639 571.889C461.488 560.256 456.058 549.464 447.402 541.606C426.169 522.329 431.614 487.487 457.666 475.339C485.827 462.207 517.732 484.737 514.481 515.553L514.015 519.976C512.352 535.736 520.136 550.995 533.871 558.9C557.073 572.254 555.614 606.205 531.352 617.519Z" fill="#C0F4FF" stroke="black" stroke-width="7"/>
<path d="M39.0348 490.886L82.0407 470.832C100.398 462.272 119.326 481.526 110.455 499.735L96.0591 529.284C88.0441 545.736 97.39 565.37 115.213 569.523L143.805 576.185C163.698 580.821 166.524 607.978 148.012 616.61L106.654 635.896C95.8922 640.914 83.1001 636.258 78.0819 625.496L28.6355 519.458C23.6173 508.697 28.2732 495.905 39.0348 490.886Z" fill="#C0C7FF" stroke="black" stroke-width="7"/>
</g>
<defs>
<clipPath id="clip0_101:17">
<rect width="595" height="330" fill="white"/>
</clipPath>
<clipPath id="clip1_101:17">
<rect width="595" height="330" fill="white" transform="translate(0 330)"/>
</clipPath>
</defs>
</svg>
